<svg width="303.7237182617187px" height="83.35999908447266px" xmlns="http://www.w3.org/2000/svg" viewBox="98.13814086914064 33.32000045776367 303.7237182617187 83.35999908447266" style="background: rgb(255, 255, 255);" preserveAspectRatio="xMidYMid"><defs><filter id="editing-crystal" x="-100%" y="-100%" width="300%" height="300%"><feMorphology operator="dilate" radius="2" in="SourceGraphic" result="border"></feMorphology><feFlood flood-color="#ffffff" result="black"></feFlood><feMorphology operator="dilate" radius="2" in="SourceGraphic" result="erode"></feMorphology><feGaussianBlur in="erode" stdDeviation="4" result="blur"></feGaussianBlur><feOffset in="blur" dx="2" dy="2" result="offset"></feOffset><feComposite operator="atop" in="offset" in2="black" result="merge"></feComposite><feComposite operator="in" in="merge" in2="SourceGraphic" result="inner-shadow"></feComposite><feGaussianBlur in="SourceGraphic" stdDeviation="2.5" result="shadow1"></feGaussianBlur><feOffset in="shadow1" dx="0" dy="5" result="shadow"></feOffset><feSpecularLighting in="SourceGraphic" result="specular" surfaceScale="1.5" specularConstant="100" specularExponent="10" lighting-color="#ffffff"><fePointLight x="250" y="-300" z="-400"></fePointLight></feSpecularLighting><feGaussianBlur in="specular" stdDeviation="1" result="specular2"></feGaussianBlur><feComposite operator="in" in="specular2" in2="SourceAlpha" result="specular3"></feComposite><feMerge result="merge"><feMergeNode in="border"></feMergeNode><feMergeNode in="inner-shadow"></feMergeNode><feMergeNode in="specular3"></feMergeNode></feMerge><feComponentTransfer in="merge" result="final"><feFuncA type="linear" slope="0.9" intercept="0"></feFuncA></feComponentTransfer><feMerge><feMergeNode in="shadow"></feMergeNode><feMergeNode in="final"></feMergeNode></feMerge></filter></defs><g filter="url(#editing-crystal)"><g transform="translate(146.57790160179138, 89.80000114440918)"><path d="M8.96 0L0.24 0L5.32-26.40L14.12-26.40L8.96 0ZM31.20-12.88L39.28-13.60L39.28-13.60Q36.40-7.28 36.40 0.04L36.40 0.04L36.40 0.04Q35.32 0.80 33.74 0.80L33.74 0.80L33.74 0.80Q32.16 0.80 31.16 0.06L31.16 0.06L31.16 0.06Q30.16-0.68 29.96-1.44L29.96-1.44L29.96-1.44Q28.96-0.40 27.34 0.20L27.34 0.20L27.34 0.20Q25.72 0.80 24 0.80L24 0.80L24 0.80Q22.28 0.80 20.78 0.24L20.78 0.24L20.78 0.24Q19.28-0.32 18.12-1.56L18.12-1.56L18.12-1.56Q15.56-4.28 15.56-9.44L15.56-9.44L15.56-9.44Q15.56-17.44 19.84-22.24L19.84-22.24L19.84-22.24Q24.24-27.20 32.04-27.20L32.04-27.20L32.04-27.20Q37.44-27.20 39.36-24.40L39.36-24.40L39.36-24.40Q39.96-23.52 39.96-22.46L39.96-22.46L39.96-22.46Q39.96-21.40 39.50-20.50L39.50-20.50L39.50-20.50Q39.04-19.60 38.32-18.88L38.32-18.88L38.32-18.88Q36.60-17.28 34.48-17.28L34.48-17.28L34.48-17.28Q33.64-17.28 32.84-17.56L32.84-17.56L32.84-17.56Q33-18.76 33-20.16L33-20.16L33-20.16Q33-21.56 32.90-22.20L32.90-22.20L32.90-22.20Q32.80-22.84 32.56-23.36L32.56-23.36L32.56-23.36Q32.04-24.44 30.90-24.44L30.90-24.44L30.90-24.44Q29.76-24.44 28.50-23.22L28.50-23.22L28.50-23.22Q27.24-22 26.24-20L26.24-20L26.24-20Q24.04-15.52 24.04-10.12L24.04-10.12L24.04-10.12Q24.04-7.64 25-5.88L25-5.88L25-5.88Q26.04-3.96 27.88-3.96L27.88-3.96L27.88-3.96Q28.52-3.96 29.10-4.28L29.10-4.28L29.10-4.28Q29.68-4.60 29.92-4.84L29.92-4.84L31.20-12.88ZM42.24-24.80L42.24-24.80L42.24-24.80Q42.80-25.92 44.02-26.54L44.02-26.54L44.02-26.54Q45.24-27.16 46.92-27.16L46.92-27.16L46.92-27.16Q49.56-27.16 51.14-25.26L51.14-25.26L51.14-25.26Q52.72-23.36 52.72-19.20L52.72-19.20L52.72-4.92L61.88-26.36L66.60-26.36L67.68-6.12L67.56-4.96L77.08-26.36L82.56-26.36L69.76 0L61.24 0L60.44-12.16L55.16 0L45.52 0L44.32-19.20L44.32-19.20Q44.20-21.36 43.62-22.78L43.62-22.78L43.62-22.78Q43.04-24.20 42.24-24.80ZM96.36-6.76L96.36-6.76L96.36-6.76Q97.36-6.08 97.36-4.58L97.36-4.58L97.36-4.58Q97.36-3.08 96.60-2.12L96.60-2.12L96.60-2.12Q95.84-1.16 94.60-0.52L94.60-0.52L94.60-0.52Q92.04 0.80 89.28 0.80L89.28 0.80L89.28 0.80Q86.52 0.80 84.90 0.20L84.90 0.20L84.90 0.20Q83.28-0.40 82.20-1.52L82.20-1.52L82.20-1.52Q80.08-3.64 80.08-7.52L80.08-7.52L80.08-7.52Q80.08-13.56 83.36-17.24L83.36-17.24L83.36-17.24Q86.88-21.20 93.00-21.20L93.00-21.20L93.00-21.20Q96.80-21.20 98.68-19.60L98.68-19.60L98.68-19.60Q100.08-18.40 100.08-16.44L100.08-16.44L100.08-16.44Q100.08-9.40 87.92-9.40L87.92-9.40L87.92-9.40Q87.76-8.36 87.76-7.48L87.76-7.48L87.76-7.48Q87.76-5.64 88.58-4.94L88.58-4.94L88.58-4.94Q89.40-4.24 90.92-4.24L90.92-4.24L90.92-4.24Q92.44-4.24 94.06-4.94L94.06-4.94L94.06-4.94Q95.68-5.64 96.36-6.76ZM88.20-11.12L88.20-11.12L88.20-11.12Q91.04-11.12 92.68-12.88L92.68-12.88L92.68-12.88Q94.32-14.56 94.32-17.24L94.32-17.24L94.32-17.24Q94.32-18.16 93.98-18.66L93.98-18.66L93.98-18.66Q93.64-19.16 92.96-19.16L92.96-19.16L92.96-19.16Q92.28-19.16 91.70-18.90L91.70-18.90L91.70-18.90Q91.12-18.64 90.52-17.76L90.52-17.76L90.52-17.76Q89.04-15.76 88.20-11.12ZM103.18-1.20L103.18-1.20L103.18-1.20Q102.24-2.24 101.82-3.88L101.82-3.88L101.82-3.88Q101.40-5.52 101.40-8.20L101.40-8.20L101.40-8.20Q101.40-10.88 102.32-13.32L102.32-13.32L102.32-13.32Q103.24-15.76 104.92-17.52L104.92-17.52L104.92-17.52Q108.36-21.20 114.04-21.20L114.04-21.20L114.04-21.20Q116.08-21.20 117.56-20.52L117.56-20.52L124.40-21.20L121.44-5.60L121.44-5.60Q121.32-5.12 121.32-4.24L121.32-4.24L121.32-4.24Q121.32-3.36 121.86-2.80L121.86-2.80L121.86-2.80Q122.40-2.24 123.20-2.16L123.20-2.16L123.20-2.16Q122.80-0.80 121.34 0L121.34 0L121.34 0Q119.88 0.80 118.24 0.80L118.24 0.80L118.24 0.80Q116.60 0.80 115.50 0.18L115.50 0.18L115.50 0.18Q114.40-0.44 114.08-1.48L114.08-1.48L114.08-1.48Q113.44-0.48 112.08 0.16L112.08 0.16L112.08 0.16Q110.72 0.80 108.90 0.80L108.90 0.80L108.90 0.80Q107.08 0.80 105.60 0.32L105.60 0.32L105.60 0.32Q104.12-0.16 103.18-1.20ZM111.62-17.44L111.62-17.44L111.62-17.44Q111.16-16.72 110.76-15.50L110.76-15.50L110.76-15.50Q110.36-14.28 109.70-11.02L109.70-11.02L109.70-11.02Q109.04-7.76 109.04-5.44L109.04-5.44L109.04-5.44Q109.04-3.12 109.40-2.44L109.40-2.44L109.40-2.44Q109.76-1.76 110.40-1.76L110.40-1.76L110.40-1.76Q111.68-1.76 112.62-2.98L112.62-2.98L112.62-2.98Q113.56-4.20 113.92-6.36L113.92-6.36L116.04-18.08L116.04-18.08Q115.20-18.80 114.22-18.80L114.22-18.80L114.22-18.80Q113.24-18.80 112.66-18.48L112.66-18.48L112.66-18.48Q112.08-18.16 111.62-17.44ZM127.20-4L127.20-4L127.20-4Q127.20-5.08 127.76-7.80L127.76-7.80L129.88-18.60L127.52-18.60L127.68-19.80L127.68-19.80Q132.48-21.24 137.12-24.76L137.12-24.76L139.04-24.76L138.08-20.40L141.20-20.40L140.84-18.60L137.76-18.60L135.72-7.80L135.72-7.80Q135.20-5.32 135.20-4.48L135.20-4.48L135.20-4.48Q135.20-2.56 136.88-2.16L136.88-2.16L136.88-2.16Q136.48-0.80 135.04 0L135.04 0L135.04 0Q133.60 0.80 131.56 0.80L131.56 0.80L131.56 0.80Q129.52 0.80 128.36-0.48L128.36-0.48L128.36-0.48Q127.20-1.76 127.20-4ZM161.12-4.44L161.12-4.44L161.12-4.44Q161.12-2.68 162.92-2.16L162.92-2.16L162.92-2.16Q162.48-0.68 160.76 0.12L160.76 0.12L160.76 0.12Q159.32 0.80 157.74 0.80L157.74 0.80L157.74 0.80Q156.16 0.80 155.34 0.38L155.34 0.38L155.34 0.38Q154.52-0.04 154.08-0.72L154.08-0.72L154.08-0.72Q153.36-1.76 153.36-3.72L153.36-3.72L153.36-3.72Q153.36-4.88 154-8.08L154-8.08L154.56-11.12L154.56-11.12Q155.24-14.60 155.24-15.88L155.24-15.88L155.24-15.88Q155.24-18.12 154-18.12L154-18.12L154-18.12Q152.44-18.12 151.44-15.84L151.44-15.84L151.44-15.84Q151.04-14.96 150.76-13.64L150.76-13.64L148.04 0L140 0.80L145.64-28L153.68-28.80L153.36-27.20L153.36-27.20Q152.24-21.04 151.28-18.96L151.28-18.96L151.28-18.96Q153.52-21.20 157.64-21.20L157.64-21.20L157.64-21.20Q162-21.20 162.80-18.32L162.80-18.32L162.80-18.32Q163.08-17.40 163.08-16.60L163.08-16.60L163.08-16.60Q163.08-15.80 163.02-15.18L163.02-15.18L163.02-15.18Q162.96-14.56 162.76-13.44L162.76-13.44L162.24-10.56L161.32-6.04L161.32-6.04Q161.12-5.12 161.12-4.44ZM182.36-6.76L182.36-6.76L182.36-6.76Q183.36-6.08 183.36-4.58L183.36-4.58L183.36-4.58Q183.36-3.08 182.60-2.12L182.60-2.12L182.60-2.12Q181.84-1.16 180.60-0.52L180.60-0.52L180.60-0.52Q178.04 0.80 175.28 0.80L175.28 0.80L175.28 0.80Q172.52 0.80 170.90 0.20L170.90 0.20L170.90 0.20Q169.28-0.40 168.20-1.52L168.20-1.52L168.20-1.52Q166.08-3.64 166.08-7.52L166.08-7.52L166.08-7.52Q166.08-13.56 169.36-17.24L169.36-17.24L169.36-17.24Q172.88-21.20 179-21.20L179-21.20L179-21.20Q182.80-21.20 184.68-19.60L184.68-19.60L184.68-19.60Q186.08-18.40 186.08-16.44L186.08-16.44L186.08-16.44Q186.08-9.40 173.92-9.40L173.92-9.40L173.92-9.40Q173.76-8.36 173.76-7.48L173.76-7.48L173.76-7.48Q173.76-5.64 174.58-4.94L174.58-4.94L174.58-4.94Q175.40-4.24 176.92-4.24L176.92-4.24L176.92-4.24Q178.44-4.24 180.06-4.94L180.06-4.94L180.06-4.94Q181.68-5.64 182.36-6.76ZM174.20-11.12L174.20-11.12L174.20-11.12Q177.04-11.12 178.68-12.88L178.68-12.88L178.68-12.88Q180.32-14.56 180.32-17.24L180.32-17.24L180.32-17.24Q180.32-18.16 179.98-18.66L179.98-18.66L179.98-18.66Q179.64-19.16 178.96-19.16L178.96-19.16L178.96-19.16Q178.28-19.16 177.70-18.90L177.70-18.90L177.70-18.90Q177.12-18.64 176.52-17.76L176.52-17.76L176.52-17.76Q175.04-15.76 174.20-11.12ZM199.96-11.24L199.96-11.24L199.96-11.24Q201.40-13.80 201.40-16.40L201.40-16.40L201.40-16.40Q201.40-18.12 200.16-18.12L200.16-18.12L200.16-18.12Q199.20-18.12 198.20-16.48L198.20-16.48L198.20-16.48Q197.16-14.84 196.84-12.72L196.84-12.72L194.76 0L186.48 0.80L190.56-20.40L197.16-21.20L196.44-17.16L196.44-17.16Q198.40-21.20 202.80-21.20L202.80-21.20L202.80-21.20Q205.12-21.20 206.38-20L206.38-20L206.38-20Q207.64-18.80 207.64-16.34L207.64-16.34L207.64-16.34Q207.64-13.88 206.02-12.32L206.02-12.32L206.02-12.32Q204.40-10.76 201.64-10.76L201.64-10.76L201.64-10.76Q200.44-10.76 199.96-11.24Z" fill="#ffffff" stroke="#88e0eb" stroke-width="1.5"></path></g></g><style>text {
  font-size: 64px;
  font-family: Arial Black;
  dominant-baseline: central;
  text-anchor: middle;
}</style></svg>